<svg xmlns="http://www.w3.org/2000/svg" xmlns:xlink="http://www.w3.org/1999/xlink" version="1.1" x="0px" y="0px" viewBox="0 0 100 100" enable-background="new 0 0 100 100" xml:space="preserve"><path fill="none" stroke="#000000" stroke-width="2.000000e-006" stroke-linecap="round" stroke-linejoin="round" stroke-miterlimit="10" d="  M-861.714,244.351"></path><path fill="none" stroke="#000000" stroke-width="2" stroke-linecap="round" stroke-linejoin="round" stroke-miterlimit="10" d="  M-304.896,125.291"></path><g><path d="M68.375,61.287c-2.652,0-4.818,2.16-4.818,4.813s2.166,4.813,4.818,4.813c2.65,0,4.818-2.16,4.818-4.813   S71.025,61.287,68.375,61.287z"></path><path d="M92.141,61.618l-0.016-24.732c0,0,0.064-1.467-2.032-1.287H39.914h-7.228c0,0-5.003,1.218-6.22,3.881l-1.354,3.835   c0,0-0.044,0.542,0.407,0.632l2.621,1.766c0,0-3.173,2.176-7.211,6.624c0,0-0.882,1.111-1.897,1.147   c-1.701,0.04-8.639,1.106-9.209,3.203v0.677l-0.825,5.112c-0.52,0.747-0.34,1.642-0.34,1.642l0.647,1.699   C9.428,66.1,10.156,66.1,10.156,66.1l1.258-0.144l0.037-2.324c-0.041-0.85,1.191-3.875,5.553-3.747c0,0,3.478-0.057,5.1,3.135   l0.961,2.255l12.552-0.251c0,0,0.002-0.02,0.006-0.058c0.003,0.103,0.007,0.206,0.01,0.309c0,0,0.052,0.791,0.491,0.873   c0,0,1.31,0.587,2.482,0.632c0,0,1.398,0.046,1.655-0.316H61.71l0.586-0.361c0,0,0-5.731,5.911-6.137c0,0,5.479-0.193,6.318,5.821   l17.573-1.665v0.304l0.638,0.515l0.641-0.258v-2.319C93.377,62.364,93.127,61.805,92.141,61.618z M33.623,47.074v3.804   c0,0-0.078,2.587-0.838,2.587l-8.673,0.305c0,0-1.218,0.075-1.294-0.533c0,0,0.076-1.293,0.456-2.054l4.033-3.957   c0,0,0.608-0.837,2.13-0.988h3.728C33.165,46.237,33.926,46.542,33.623,47.074z M53.54,50.651c0,0.822-0.666,1.488-1.487,1.488   h-8.548c-0.822,0-1.489-0.666-1.489-1.488v-8.409c0-0.822,0.667-1.488,1.489-1.488h8.548c0.821,0,1.487,0.666,1.487,1.488V50.651z    M65.873,50.651c0,0.822-0.666,1.488-1.488,1.488h-8.546c-0.823,0-1.489-0.666-1.489-1.488v-8.409c0-0.822,0.666-1.488,1.489-1.488   h8.546c0.822,0,1.488,0.666,1.488,1.488V50.651z M78.207,50.651c0,0.822-0.666,1.488-1.488,1.488h-8.547   c-0.821,0-1.488-0.666-1.488-1.488v-8.409c0-0.822,0.667-1.488,1.488-1.488h8.547c0.822,0,1.488,0.666,1.488,1.488V50.651z    M90.541,50.651c0,0.822-0.667,1.488-1.489,1.488h-8.546c-0.822,0-1.488-0.666-1.488-1.488v-8.409c0-0.822,0.666-1.488,1.488-1.488   h8.546c0.822,0,1.489,0.666,1.489,1.488V50.651z"></path><path d="M17.004,60.92c-2.651,0-4.818,2.16-4.818,4.813c0,2.653,2.167,4.813,4.818,4.813c2.652,0,4.818-2.16,4.818-4.813   C21.822,63.081,19.656,60.92,17.004,60.92z"></path></g></svg>